<svg width="33" height="33" viewBox="0 0 33 33" fill="none" xmlns="http://www.w3.org/2000/svg">
<g filter="url(#filter0_d_172_4298)">
<path d="M25.0168 0C27.2187 0 29 1.78367 29 3.98536V21.0172C29 23.2163 27.2187 25 25.0168 25H7.98317C5.78386 25 4 23.2163 4 21.0172V3.98536C4 1.78367 5.78386 0 7.98317 0H25.0168Z" fill="#FFFC00"/>
<path d="M16.6013 21.1002C16.5493 21.1002 16.5 21.1002 16.4662 21.1002C16.4325 21.1002 16.4013 21.1002 16.3832 21.1002C15.3004 21.1002 14.5993 20.6017 13.9346 20.1344C13.4672 19.7995 13.0336 19.5009 12.5168 19.4178C12.2676 19.3685 12.0157 19.3503 11.7664 19.3503C11.3328 19.3503 10.9822 19.4178 10.733 19.4672C10.5824 19.5009 10.4499 19.5165 10.3487 19.5165C10.25 19.5165 10.1332 19.5009 10.0838 19.3347C10.0319 19.1842 10.0163 19.0517 9.98256 18.9167C9.89946 18.5662 9.85013 18.3507 9.69953 18.3352C7.98318 18.0677 7.48204 17.7017 7.38337 17.4498C7.36519 17.4187 7.36519 17.3849 7.34961 17.333C7.34961 17.2343 7.41712 17.1512 7.51579 17.1331C10.1669 16.7021 11.351 14.0019 11.4003 13.8851C11.4003 13.8851 11.4003 13.8851 11.4003 13.8669C11.5665 13.5346 11.6002 13.2516 11.499 13.0179C11.3172 12.5843 10.733 12.4 10.3331 12.2831C10.2318 12.252 10.1487 12.2182 10.0656 12.2C9.28407 11.8833 9.21656 11.5665 9.25032 11.4186C9.29965 11.133 9.66577 10.9512 9.96698 10.9512C10.0501 10.9512 10.1176 10.9668 10.1825 11.0005C10.533 11.1667 10.8498 11.2498 11.1328 11.2498C11.5171 11.2498 11.6833 11.0836 11.6989 11.068C11.6833 10.8837 11.6833 10.702 11.6677 10.502C11.5821 9.25062 11.4834 7.70061 11.8833 6.79969C13.0673 4.13327 15.5834 3.93335 16.3338 3.93335C16.3494 3.93335 16.6662 3.93335 16.6662 3.93335H16.7181C17.4659 3.93335 19.9846 4.13327 21.1661 6.79969C21.5686 7.68504 21.4673 9.25062 21.3842 10.502V10.5514C21.366 10.7175 21.366 10.9019 21.3504 11.0499C21.366 11.068 21.5166 11.2186 21.8672 11.2342C22.1346 11.2186 22.4332 11.133 22.75 10.985C22.8513 10.933 22.9499 10.933 23.033 10.933C23.1499 10.933 23.2511 10.9512 23.3498 11.0005C23.6173 11.1018 23.7834 11.2835 23.8016 11.4679C23.8016 11.6496 23.6666 11.9352 22.9837 12.2C22.9162 12.2338 22.8175 12.252 22.7344 12.2831C22.3345 12.4 21.7503 12.5999 21.5686 13.0179C21.4673 13.2516 21.501 13.5346 21.6672 13.8669C21.6672 13.8669 21.6672 13.8669 21.6672 13.8851C21.7166 14.0019 22.9006 16.7021 25.5517 17.1331C25.6504 17.1512 25.7179 17.2343 25.7179 17.333C25.7179 17.3667 25.6997 17.4005 25.6842 17.4498C25.5673 17.7017 25.0843 18.0677 23.368 18.3352C23.233 18.3507 23.1681 18.5351 23.085 18.9167C23.0512 19.0517 23.0175 19.1997 22.9837 19.3347C22.9499 19.4672 22.8668 19.5165 22.7344 19.5165H22.7162C22.6332 19.5165 22.5007 19.5009 22.3345 19.4672C22.0515 19.4178 21.7166 19.3503 21.3011 19.3503C21.0518 19.3503 20.8 19.3685 20.5507 19.4178C20.034 19.5009 19.6003 19.8177 19.1329 20.1344C18.367 20.6017 17.6841 21.1002 16.6013 21.1002Z" fill="white"/>
<path d="M16.6507 4.10227C17.3492 4.10227 19.7848 4.28402 20.9169 6.85178C21.3012 7.70078 21.1999 9.21703 21.1168 10.4503C21.1012 10.6502 21.1012 10.8345 21.0831 11.0189V11.102L21.135 11.1513C21.1506 11.1669 21.3505 11.385 21.7841 11.4005C22.0672 11.385 22.3995 11.3019 22.7501 11.1331C22.802 11.1175 22.8669 11.102 22.95 11.102C23.0331 11.102 23.1188 11.1175 23.2019 11.1513H23.2175C23.4018 11.2188 23.5342 11.3356 23.5342 11.4499C23.5342 11.5174 23.4849 11.7355 22.8332 12.0003C22.7683 12.034 22.6852 12.0522 22.5839 12.0834C22.1503 12.2184 21.5167 12.4183 21.3012 12.935C21.1843 13.218 21.2181 13.5685 21.3998 13.9346C21.4829 14.1189 22.7007 16.8502 25.435 17.302C25.435 17.3176 25.4349 17.3331 25.4168 17.3513C25.3674 17.4681 25.0844 17.8342 23.2512 18.1172C22.9682 18.1666 22.9007 18.4833 22.8176 18.852C22.7838 18.9844 22.7501 19.1168 22.7163 19.2674C22.7007 19.3167 22.7007 19.3167 22.6514 19.3167H22.6332C22.5501 19.3167 22.4333 19.3012 22.2853 19.2674C22.0178 19.2181 21.6673 19.1506 21.2181 19.1506C20.9662 19.1506 20.7014 19.1687 20.4339 19.2181C19.8679 19.3167 19.416 19.6335 18.9331 19.9684C18.2839 20.4331 17.6166 20.9005 16.5832 20.9005C16.5338 20.9005 16.5001 20.9005 16.4507 20.9005H16.417C16.3832 20.9005 16.3676 20.9005 16.3339 20.9005C15.316 20.9005 14.6331 20.4331 13.984 19.9684C13.501 19.6335 13.0492 19.3012 12.4831 19.2181C12.2157 19.1687 11.9664 19.1506 11.699 19.1506C11.2498 19.1506 10.8836 19.2181 10.6344 19.2674C10.4838 19.3012 10.3669 19.3167 10.2838 19.3167C10.2163 19.3167 10.2163 19.3167 10.2007 19.2674C10.167 19.135 10.1332 18.9844 10.0995 18.852C10.0164 18.4833 9.94887 18.151 9.66584 18.1172C7.83265 17.8342 7.53404 17.45 7.50028 17.3513C7.50028 17.3331 7.48211 17.3176 7.48211 17.302C10.2163 16.8502 11.4341 14.1189 11.5172 13.9346C11.699 13.5503 11.7327 13.218 11.6159 12.935C11.4004 12.4183 10.7486 12.2184 10.3332 12.0834C10.2319 12.0522 10.1488 12.034 10.0839 12.0003C9.53342 11.7848 9.36723 11.5667 9.38281 11.4343C9.41657 11.2837 9.68402 11.1175 9.91511 11.1175C9.96705 11.1175 10.0164 11.1331 10.0501 11.1331C10.4318 11.3175 10.7668 11.4005 11.0654 11.4005C11.551 11.4005 11.7509 11.185 11.7821 11.1513L11.834 11.102V11.0189C11.8158 10.8345 11.8158 10.6502 11.8002 10.4503C11.7172 9.21703 11.6341 7.70078 12.0002 6.85178C13.166 4.30219 15.5679 4.10227 16.2846 4.10227C16.3001 4.10227 16.6169 4.10227 16.6169 4.10227C16.6325 4.10227 16.6507 4.10227 16.6507 4.10227ZM16.6507 3.71802C16.6325 3.71802 16.6169 3.71802 16.6013 3.71802C16.6013 3.71802 16.3001 3.71802 16.2846 3.71802C15.516 3.71802 12.9012 3.93351 11.6678 6.70119C11.2498 7.63327 11.351 9.21703 11.4341 10.484C11.4497 10.6346 11.4497 10.7852 11.4653 10.9332C11.4004 10.967 11.2835 11.0189 11.0992 11.0189C10.8499 11.0189 10.5669 10.9332 10.2319 10.7852C10.1488 10.7515 10.0501 10.7177 9.93329 10.7177C9.549 10.7177 9.09978 10.967 9.01669 11.3512C8.96736 11.6186 9.08421 12.0185 9.94887 12.3508C10.032 12.3845 10.1176 12.4183 10.2163 12.4521C10.5669 12.5689 11.1173 12.735 11.2653 13.0856C11.351 13.2673 11.3173 13.501 11.1823 13.7684C11.1823 13.7684 11.1823 13.784 11.1667 13.784C11.1173 13.9008 9.96705 16.4997 7.43277 16.9177C7.23283 16.9515 7.10041 17.1176 7.11599 17.3176C7.11599 17.3851 7.13157 17.4344 7.14974 17.4837C7.3341 17.9355 8.14943 18.2496 9.61651 18.4833C9.66584 18.5508 9.71518 18.7845 9.74893 18.9351C9.78269 19.0675 9.81644 19.2181 9.8502 19.3687C9.89954 19.5166 10.0164 19.701 10.2994 19.701C10.4163 19.701 10.5669 19.6672 10.7175 19.6335C10.9667 19.5842 11.2991 19.5166 11.7172 19.5166C11.9508 19.5166 12.1845 19.5348 12.4338 19.5842C12.9012 19.6672 13.3011 19.9502 13.7659 20.267C14.4332 20.7343 15.1836 21.2666 16.3339 21.2666C16.3676 21.2666 16.4014 21.2666 16.4326 21.2666C16.4663 21.2666 16.5157 21.2666 16.5676 21.2666C17.7179 21.2666 18.4683 20.7343 19.133 20.267C19.6004 19.9347 20.0003 19.6517 20.4677 19.5686C20.7169 19.5348 20.9506 19.5011 21.1843 19.5011C21.5842 19.5011 21.901 19.5504 22.184 19.5997C22.3684 19.6335 22.5008 19.6517 22.6021 19.6517H22.6332C22.8513 19.6517 23.0019 19.5348 23.0669 19.3349C23.1188 19.1843 23.1499 19.0519 23.1681 18.9013C23.2019 18.7507 23.2512 18.5171 23.3006 18.4677C24.7676 18.2341 25.5674 17.9173 25.7673 17.4681C25.7855 17.4188 25.8011 17.3513 25.8167 17.2838C25.8348 17.0839 25.6842 16.9177 25.4999 16.884C22.95 16.4686 21.8179 13.8515 21.7686 13.7502C21.7686 13.7502 21.7686 13.7346 21.7504 13.7346C21.618 13.4516 21.5842 13.2335 21.6673 13.0518C21.8179 12.7013 22.3502 12.5351 22.7163 12.4183C22.8176 12.3845 22.9163 12.3508 22.9838 12.317C23.6173 12.0678 23.9341 11.7666 23.9341 11.4005C23.9341 11.1175 23.7186 10.8683 23.3681 10.7515C23.2512 10.7021 23.1188 10.684 22.9838 10.684C22.8851 10.684 22.7501 10.7021 22.6332 10.7515C22.3346 10.8839 22.0672 10.967 21.8335 10.9851C21.6829 10.9851 21.5842 10.9332 21.5167 10.902C21.5167 10.767 21.5349 10.6346 21.5349 10.5022V10.4503C21.618 9.18328 21.7166 7.60212 21.3012 6.66744C20.0496 3.93351 17.4348 3.71802 16.6507 3.71802Z" fill="#030303"/>
</g>
<defs>
<filter id="filter0_d_172_4298" x="0" y="0" width="33" height="33" filterUnits="userSpaceOnUse" color-interpolation-filters="sRGB">
<feFlood flood-opacity="0" result="BackgroundImageFix"/>
<feColorMatrix in="SourceAlpha" type="matrix" values="0 0 0 0 0 0 0 0 0 0 0 0 0 0 0 0 0 0 127 0" result="hardAlpha"/>
<feOffset dy="4"/>
<feGaussianBlur stdDeviation="2"/>
<feComposite in2="hardAlpha" operator="out"/>
<feColorMatrix type="matrix" values="0 0 0 0 0 0 0 0 0 0 0 0 0 0 0 0 0 0 0.25 0"/>
<feBlend mode="normal" in2="BackgroundImageFix" result="effect1_dropShadow_172_4298"/>
<feBlend mode="normal" in="SourceGraphic" in2="effect1_dropShadow_172_4298" result="shape"/>
</filter>
</defs>
</svg>
