<svg width="482" height="27" viewBox="0 0 482 27" fill="none" xmlns="http://www.w3.org/2000/svg">
<path d="M481 21.0495L479.999 20.802V21.5446H478.998V22.2871H478.497L477.997 23.2772H476.495L475.494 22.7822H474.493L473.492 22.5347L472.992 22.0396L471.991 22.2871L470.99 22.5347L470.489 22.7822L468.987 22.2871H467.986L467.486 22.5347V22.7822H466.485L465.984 23.0297V23.5248L465.484 23.7723L464.483 23.5248L463.982 23.7723L463.482 24.2673L462.481 24.0198H461.98L461.48 24.2673V24.7624L460.979 25.0099H460.479L459.978 24.7624L459.478 25.0099H458.977L457.976 25.2574L456.975 25.0099V24.7624H456.474C456.308 24.7624 455.974 24.8119 455.974 25.0099C455.974 25.2574 455.473 25.0099 455.473 25.2574C455.473 25.5049 455.473 25.505 454.973 25.7525C454.572 25.9505 454.139 26 453.972 26H453.471L452.971 25.505H452.47H450.969L450.468 25.2574C450.635 25.1749 450.869 25.0099 450.468 25.0099C450.068 25.0099 449.3 24.8449 448.967 24.7624H448.466V24.2673V24.0198H447.465H446.464L446.965 23.5248L445.964 23.2772L444.462 23.0297V22.7822L442.96 23.0297C442.56 23.2277 441.792 23.2772 441.459 23.2772L440.958 22.7822H440.458H438.956L438.456 22.2871H436.954C436.554 22.2871 436.12 22.4521 435.953 22.5347C435.953 22.6172 435.853 22.7822 435.453 22.7822H433.951L433.45 22.2871C433.05 22.2871 432.616 22.1221 432.449 22.0396H431.949V21.5446L430.948 21.297L428.946 21.0495V21.7921C428.946 21.8746 428.846 22.0396 428.445 22.0396C428.045 22.0396 427.611 22.2046 427.444 22.2871L426.944 22.5347H426.443L424.942 22.2871H423.44L422.94 22.5347C423.106 22.6172 423.34 22.7822 422.94 22.7822C422.539 22.7822 422.105 22.9472 421.938 23.0297H421.438C421.038 23.0297 420.937 23.3597 420.937 23.5248V23.7723H419.936L419.436 24.5149C419.436 24.5974 419.336 24.7624 418.935 24.7624H417.934V25.2574H416.933L415.432 25.0099V24.7624H414.431H413.43L413.93 24.2673L412.929 24.0198H411.928L411.428 24.2673L410.927 24.7624L409.425 25.0099L408.925 25.2574H408.424L406.923 25.0099V24.7624H405.922C405.755 24.7624 405.421 24.8119 405.421 25.0099C405.421 25.2574 405.421 25.2574 404.921 25.2574C404.52 25.2574 404.087 25.0924 403.92 25.0099L403.419 24.7624L402.418 24.5149L401.417 24.2673C401.417 24.1848 401.317 24.0198 400.917 24.0198C400.516 24.0198 399.749 24.3498 399.415 24.5149H398.914L398.414 24.2673V24.0198C398.08 23.9373 397.313 23.7723 396.912 23.7723C396.512 23.7723 396.412 23.6073 396.412 23.5248V23.2772H394.91L394.41 23.5248C394.009 23.7228 393.909 23.9373 393.909 24.0198L392.408 24.2673L391.907 23.5248H390.406C390.239 23.6073 389.805 23.7723 389.405 23.7723C389.004 23.7723 388.57 23.6073 388.404 23.5248L387.903 23.0297L386.902 22.7822H385.4H384.399C383.999 22.7822 383.565 22.9472 383.398 23.0297L382.397 23.2772L381.396 23.0297L380.395 22.7822L379.394 23.0297V23.5248C379.227 23.5248 378.894 23.5743 378.894 23.7723C378.894 23.9703 378.56 24.1848 378.393 24.2673C378.393 24.1848 378.293 24.0693 377.893 24.2673C377.492 24.4653 376.725 24.3498 376.391 24.2673L375.891 23.7723L374.389 23.5248L373.888 23.2772H373.388L372.887 23.5248C372.487 23.7228 371.719 23.7723 371.386 23.7723L369.884 23.0297H369.384C368.983 23.0297 368.216 23.1947 367.882 23.2772V22.7822L367.382 22.2871L365.88 22.0396C365.713 21.9571 365.279 21.7921 364.879 21.7921H363.377C362.977 21.7921 362.543 22.1221 362.376 22.2871H361.876L361.375 22.0396L359.874 21.7921H358.873H358.372L357.371 22.0396L356.871 22.2871C356.07 22.4851 355.202 22.5347 354.869 22.5347H353.868L352.366 22.7822L351.865 23.0297C350.264 23.6238 349.53 23.7723 349.363 23.7723L348.862 23.5248H347.861C347.461 23.5248 346.693 23.6898 346.36 23.7723L345.859 23.2772H344.358L342.856 23.0297L342.356 22.7822V22.0396H341.355H339.853C339.453 22.0396 338.351 21.8746 337.851 21.7921C337.684 21.7096 337.25 21.6436 336.85 22.0396C335.649 22.6337 334.681 22.7822 334.347 22.7822L332.846 22.0396L331.845 21.7921C331.845 21.7096 331.745 21.5941 331.344 21.7921C330.343 22.5347 330.343 22.7822 329.843 22.7822C329.342 22.7822 329.342 22.7822 328.341 23.0297C327.34 23.5248 327.34 23.7723 326.839 23.7723C326.439 23.7723 325.672 23.9373 325.338 24.0198L324.337 23.7723L322.835 23.5248L321.834 23.2772C321.667 23.3597 321.334 23.5743 321.334 23.7723C321.334 24.0198 321.334 24.2673 320.833 24.2673H319.332L317.83 24.0198L316.829 23.7723C316.662 23.6898 316.328 23.5743 316.328 23.7723C316.328 24.0198 316.328 24.0198 315.828 24.2673C314.827 25.0099 314.827 24.7624 314.326 25.0099C313.526 25.2079 312.992 25.2574 312.825 25.2574L311.824 25.0099L310.823 24.7624L309.822 24.5149L309.321 24.2673L308.821 23.7723L308.32 24.2673H307.319C307.152 24.1848 306.819 24.0693 306.819 24.2673C306.819 24.4653 306.485 24.6799 306.318 24.7624H305.818L305.317 24.2673H304.816C304.416 24.2673 304.316 24.1023 304.316 24.0198L303.815 23.7723V23.5248L302.814 23.2772C302.481 23.1947 301.813 23.0792 301.813 23.2772C301.813 23.5248 302.314 23.5248 301.813 23.7723C301.012 24.1683 300.479 24.2673 300.312 24.2673L299.811 24.0198V23.7723L298.31 23.2772H297.809L296.308 23.0297V23.7723H295.307L294.306 24.0198V24.2673C294.306 24.4653 293.972 24.5149 293.805 24.5149L292.804 24.2673L291.803 24.0198C291.803 23.9373 291.703 23.8218 291.302 24.0198L290.301 24.5149L289.3 24.2673L288.8 24.0198L287.799 23.7723L286.798 24.2673C286.631 24.1848 286.197 24.0198 285.797 24.0198C285.296 24.0198 285.296 23.7723 284.796 24.0198C284.395 24.2178 284.295 24.4323 284.295 24.5149C284.295 24.5974 284.195 24.7624 283.795 24.7624C283.294 24.7624 283.294 24.5149 282.794 24.5149C281.993 24.7129 281.459 24.7624 281.292 24.7624C281.459 24.7624 281.692 24.8119 281.292 25.0099C280.892 25.2079 280.458 25.2574 280.291 25.2574H279.79H278.289L277.288 25.0099H276.787C276.287 25.0099 276.287 25.0099 276.287 25.2574V25.7525L275.286 25.2574L274.785 25.0099V24.7624L273.784 24.5149L274.285 24.2673L272.783 24.0198L271.782 23.7723L272.283 23.5248L271.782 23.2772H271.282C270.781 23.2772 270.28 23.0297 269.78 23.0297H268.779L267.778 22.7822H265.776H265.275C264.775 22.7822 264.775 22.5347 264.274 22.7822C263.874 22.9802 263.44 23.0297 263.273 23.0297C263.44 23.1122 263.674 23.2772 263.273 23.2772C262.773 23.2772 262.773 23.5248 262.272 23.5248C261.872 23.5248 261.104 23.3597 260.771 23.2772V23.0297C260.771 22.9472 260.671 22.8317 260.27 23.0297C259.77 23.2772 259.77 23.0297 259.269 23.2772C258.869 23.4752 258.101 23.3597 257.767 23.2772L258.21 22.8397L256.766 22.7822C256.6 22.6172 256.166 22.2871 255.765 22.2871H254.264C254.097 22.2046 253.663 22.0891 253.263 22.2871C252.862 22.4851 252.095 22.6997 251.761 22.7822C251.594 22.6172 251.161 22.2871 250.76 22.2871C250.26 22.2871 250.26 22.5347 249.759 22.7822C248.958 23.1782 248.424 23.2772 248.258 23.2772C248.258 23.1122 248.157 22.7822 247.757 22.7822C247.257 22.7822 246.756 22.7822 246.756 23.0297C246.756 23.2772 246.756 23.5248 246.255 23.5248C245.855 23.5248 244.754 23.3597 244.253 23.2772L243.753 22.7822C244.087 22.5347 244.454 22.1881 243.252 22.7822C242.051 23.3762 241.417 23.5248 241.25 23.5248H240.249L239.248 23.0297C239.415 22.8647 239.549 22.6337 238.748 23.0297C237.747 23.5248 238.247 23.7723 237.747 23.7723C237.246 23.7723 237.246 24.0198 236.746 24.0198C236.345 24.0198 235.911 23.8548 235.745 23.7723L235.244 23.0297C235.244 22.9472 235.144 22.8317 234.743 23.0297C234.243 23.2772 233.742 23.5248 233.242 23.5248C232.741 23.5248 232.741 23.7723 232.241 23.7723C231.74 23.7723 231.74 23.2772 230.739 23.7723C229.939 24.1683 229.738 24.4323 229.738 24.5149H227.736L226.735 24.2673L226.235 23.7723H225.234L224.733 23.2772V23.0297H223.232C222.731 23.0297 222.23 22.7822 221.73 23.0297C221.33 23.2277 220.896 23.2772 220.729 23.2772V23.5248C220.228 24.2673 220.228 24.0198 220.228 24.2673V24.5149L219.227 24.2673L218.226 24.7624H216.725C216.892 24.5974 217.125 24.2673 216.725 24.2673H214.222C213.822 24.2673 213.388 23.9373 213.221 23.7723L212.22 23.5248L213.221 23.0297H211.219C210.718 23.0297 210.218 23.0297 209.717 23.2772C209.217 23.5248 209.717 23.7723 209.217 23.7723C208.716 23.7723 207.715 24.0198 207.215 23.7723C206.214 23.2772 206.214 23.0297 205.713 23.2772C205.213 23.5248 205.713 23.2772 205.213 23.7723C204.812 24.1683 204.379 23.6073 204.212 23.2772L203.711 23.0297L202.71 22.7822C202.376 22.6172 201.709 22.3861 201.709 22.7822C201.709 23.2772 201.209 23.0297 201.209 23.2772C201.209 23.4752 199.874 23.3597 199.206 23.2772L198.205 23.5248L197.204 23.7723L196.704 23.5248V23.0297L195.918 22.6412C195.942 22.7162 195.896 22.8382 195.703 23.0297C195.302 23.4257 194.535 23.5248 194.201 23.5248L193.701 23.0297L193.2 22.7822L191.699 23.2772L191.198 23.5248C190.798 23.7228 190.364 23.6073 190.197 23.5248L189.697 23.0297C190.03 22.8647 190.497 22.5347 189.697 22.5347C188.896 22.5347 187.694 22.3696 187.194 22.2871H186.693C187.194 22.3696 188.095 22.5842 187.695 22.7822C187.194 23.0297 186.693 23.2772 186.193 23.2772H185.192C185.025 23.3597 184.591 23.5248 184.191 23.5248C183.79 23.5248 183.69 23.0297 183.69 22.7822C183.69 22.8647 183.59 22.9802 183.19 22.7822C182.789 22.5842 182.356 22.5347 182.189 22.5347L181.688 22.0396L180.187 21.7921C180.187 21.6271 180.087 21.396 179.686 21.7921C179.186 22.2871 179.186 22.2871 178.685 22.2871C178.185 22.2871 178.185 22.5347 177.684 22.5347C177.284 22.5347 176.516 22.3696 176.183 22.2871L175.181 22.0396C175.015 21.9571 174.681 21.8416 174.681 22.0396C174.681 22.2871 174.18 22.2871 174.18 22.5347C174.18 22.7327 173.513 22.7822 173.179 22.7822L172.178 22.5347C172.011 22.4521 171.177 22.7822 171.177 22.7822L169.784 23.2772L168.675 24.2673L167.5 24.7624L166.5 25.5L164.5 25L164 25.5C164 25.5 162.668 25.2574 162.168 25.2574L161.667 24.7624L160.666 24.2673L159.665 23.7723L160.666 23.5248C160.666 23.4422 160.566 23.2772 160.166 23.2772C159.765 23.2772 158.998 23.1122 158.664 23.0297L158.164 22.7822L156.662 23.0297C156.328 22.9472 155.661 22.8317 155.661 23.0297C155.661 23.2277 154.994 23.6073 154.66 23.7723H154.16L153.159 23.2772C152.992 23.1122 152.558 22.8317 152.157 23.0297C151.757 23.2277 150.99 23.4422 150.656 23.5248L149.655 23.7723C149.321 23.6898 148.554 23.5248 148.153 23.5248C147.653 23.5248 147.653 23.7723 147.152 24.0198C146.351 24.4158 145.15 24.1848 144.65 24.0198V23.5248C144.483 23.4422 144.049 23.2772 143.649 23.2772C143.248 23.2772 143.148 23.1122 143.148 23.0297L142.648 22.7822C142.481 22.7822 142.147 22.7327 142.147 22.5347C142.147 22.2871 141.146 22.2871 140.645 22.2871H139.144C138.743 22.2871 137.976 22.1221 137.642 22.0396C137.809 22.2046 138.043 22.5842 137.642 22.7822C137.242 22.9802 136.474 23.0297 136.141 23.0297L135.14 22.2871L133.638 22.5347H133.138C132.737 22.5347 131.97 22.6997 131.636 22.7822V22.5347V22.0396L130.635 21.7921H129.634C129.634 21.7096 129.534 21.5941 129.133 21.7921C128.633 22.0396 128.132 21.7921 128.132 22.0396C128.132 22.2871 128.633 22.2871 128.132 22.5347C127.732 22.7327 127.298 22.7822 127.131 22.7822C127.131 22.8647 127.031 23.0297 126.631 23.0297C126.23 23.0297 126.13 23.1947 126.13 23.2772C125.964 23.3597 125.63 23.4752 125.63 23.2772V22.7822V22.2871L124.629 22.0396H123.127H122.126H121.125L120.625 22.5347C120.625 22.6172 120.525 22.7822 120.124 22.7822C119.724 22.7822 119.29 22.9472 119.123 23.0297C119.457 23.0297 120.024 23.0792 119.624 23.2772C119.123 23.5248 119.624 23.7723 119.123 23.7723C118.723 23.7723 118.289 23.9373 118.122 24.0198H117.622C117.221 24.0198 116.12 23.8548 115.619 23.7723L115.119 23.5248L113.117 23.2772C112.616 23.5248 112.116 23.5248 111.615 23.5248C111.115 23.5248 110.614 23.5248 110.114 23.7723C109.613 24.0198 110.114 24.0198 109.613 24.2673C109.113 24.5149 108.612 24.7624 108.112 24.7624C107.611 24.7624 107.111 25.0099 106.61 25.0099C106.11 25.0099 106.11 24.7624 105.609 25.0099C105.209 25.2079 104.107 25.5049 104.608 25.2574C104.441 25.3399 104.007 25.505 103.607 25.505C103.206 25.505 102.439 25.3399 102.105 25.2574L101.605 24.5149L101.104 24.2673L101.605 23.5248H101.104L100.103 23.2772H99.1022C99.1022 23.1122 99.0021 22.8812 98.6017 23.2772C98.1012 23.7723 98.6017 24.0198 98.1012 24.0198C97.6006 24.0198 97.1001 24.0198 97.1001 23.7723C97.1001 23.5743 96.7664 23.0297 96.5996 22.7822L95.5985 22.5347H95.098C94.2972 22.5347 93.0959 22.6997 92.5954 22.7822L91.0939 22.5347H90.5933C90.2597 22.7822 89.5923 23.3267 89.5923 23.5248C89.5923 23.7723 89.5923 24.0198 89.0918 24.0198C88.6914 24.0198 87.2565 23.8548 86.5892 23.7723C86.4223 23.6073 85.8884 23.3762 85.0876 23.7723C81.584 25.0099 80.5829 25.0099 80.0824 25.2574C79.5819 25.5049 78.5808 25.0099 78.5808 25.505C78.5808 25.901 77.9135 25.5049 77.5798 25.2574C77.4129 25.2574 77.0793 25.3069 77.0793 25.505C77.0793 25.703 76.4119 25.7525 76.0782 25.7525L75.0772 25.2574L74.5767 25.0099C74.5767 24.9274 74.4765 24.7624 74.0761 24.7624C73.5756 24.7624 73.5756 24.2673 73.0751 24.7624C72.6747 25.1584 72.2409 25.4224 72.0741 25.505C72.2409 25.4224 72.3744 25.3069 71.5735 25.505C70.5725 25.7525 70.5725 25.7525 70.072 25.7525C69.6715 25.7525 68.9041 25.5875 68.5704 25.505V25.0099C67.5694 25.0099 68.5704 24.7624 67.5694 24.7624H65.0667L64.0657 24.5149L63.0647 24.2673C63.2315 24.1848 63.365 24.0693 62.5641 24.2673C61.5631 24.5149 61.5631 24.2673 61.0626 24.2673H60.0615L59.0605 24.0198C59.8947 24.3498 61.2628 25.0099 60.0615 25.0099H58.0594V24.5149L56.5579 24.2673V23.7723L55.5568 23.5248C55.5568 23.4422 55.4567 23.2772 55.0563 23.2772H53.5548L52.5537 23.0297L52.0532 23.2772C51.5527 23.5248 52.0532 23.5248 51.5527 23.7723C51.0521 24.0198 51.0521 24.2673 50.5516 24.2673C50.1512 24.2673 49.7174 24.4323 49.5506 24.5149L49.0501 24.7624C48.8832 24.7624 48.5495 24.8119 48.5495 25.0099C48.5495 25.2079 47.8822 25.4224 47.5485 25.505L47.048 25.2574C47.048 25.1749 46.9479 25.0099 46.5475 25.0099C45.7466 24.8119 45.2127 24.7624 45.0459 24.7624L44.0448 25.2574C43.878 25.1749 43.4442 25.0594 43.0438 25.2574C42.6434 25.4554 42.2096 25.505 42.0428 25.505L41.0417 25.0099L40.0407 24.7624L39.0396 24.2673C39.3733 24.1848 39.7404 24.0198 38.5391 24.0198C37.3379 24.0198 36.3702 23.8548 36.0365 23.7723L37.0375 23.5248C37.0375 23.4422 36.9374 23.2772 36.537 23.2772C36.1366 23.2772 35.7028 23.1122 35.536 23.0297L33.5339 22.7822L31.5318 22.2871C29.8634 21.7096 28.5287 22.0396 28.5287 22.0396C28.5287 22.0396 27.194 22.0396 27.5276 22.2871C27.8613 22.5347 26.4265 21.8911 26.0261 22.2871C25.6257 22.6832 23.5235 22.2871 23.0229 22.2871L21.0209 23.0297C21.0209 22.7822 20.5203 22.2871 20.5203 22.2871L18 22C18 22 15.3483 22.6172 14.5141 22.5347V22.0396C14.1804 21.8746 12.5 22 12.5 22L11.2551 21.0495L9.50888 21.5446L7.50679 21.0495L6.5 21L6 20H4L2.5 20.5L1.5 19.5L1.00001 19.0693L1.00002 15.604L1 1L481 1.00001V21.0495Z" fill="white"/>
<path d="M258.268 22.7822L258.21 22.8397M258.21 22.8397L257.767 23.2772C258.101 23.3597 258.869 23.4752 259.269 23.2772C259.77 23.0297 259.77 23.2772 260.27 23.0297C260.67 22.8317 260.771 22.9472 260.771 23.0297V23.2772C261.104 23.3597 261.872 23.5248 262.272 23.5248C262.773 23.5248 262.773 23.2772 263.273 23.2772C263.674 23.2772 263.44 23.1122 263.273 23.0297C263.44 23.0297 263.874 22.9802 264.274 22.7822C264.775 22.5347 264.775 22.7822 265.275 22.7822C265.676 22.7822 265.776 22.7822 265.776 22.7822C266.109 22.7822 266.977 22.7822 267.778 22.7822L268.779 23.0297C268.946 23.0297 269.38 23.0297 269.78 23.0297C270.28 23.0297 270.781 23.2772 271.282 23.2772C271.682 23.2772 271.782 23.2772 271.782 23.2772L272.283 23.5248L271.782 23.7723L272.783 24.0198L274.285 24.2673L273.784 24.5149L274.785 24.7624V25.0099L275.286 25.2574L276.287 25.7525C276.287 25.67 276.287 25.4554 276.287 25.2574C276.287 25.0099 276.287 25.0099 276.787 25.0099C277.188 25.0099 277.288 25.0099 277.288 25.0099L278.289 25.2574C278.623 25.2574 279.39 25.2574 279.79 25.2574C280.191 25.2574 280.291 25.2574 280.291 25.2574C280.458 25.2574 280.892 25.2079 281.292 25.0099C281.692 24.8119 281.459 24.7624 281.292 24.7624C281.459 24.7624 281.993 24.7129 282.794 24.5149C283.294 24.5149 283.294 24.7624 283.795 24.7624C284.195 24.7624 284.295 24.5974 284.295 24.5149C284.295 24.4323 284.395 24.2178 284.796 24.0198C285.296 23.7723 285.296 24.0198 285.797 24.0198C286.197 24.0198 286.631 24.1848 286.798 24.2673C286.965 24.1848 287.398 23.9703 287.799 23.7723L288.8 24.0198L289.3 24.2673L290.301 24.5149C290.468 24.4323 290.902 24.2178 291.302 24.0198C291.703 23.8218 291.803 23.9373 291.803 24.0198L292.804 24.2673L293.805 24.5149C293.972 24.5149 294.306 24.4653 294.306 24.2673C294.306 24.0693 294.306 24.0198 294.306 24.0198L295.307 23.7723H296.308V23.0297L297.809 23.2772H298.31L299.811 23.7723V24.0198L300.312 24.2673C300.479 24.2673 301.012 24.1683 301.813 23.7723C302.314 23.5248 301.813 23.5248 301.813 23.2772C301.813 23.0792 302.481 23.1947 302.814 23.2772L303.815 23.5248V23.7723L304.316 24.0198C304.316 24.1023 304.416 24.2673 304.816 24.2673C305.217 24.2673 305.317 24.2673 305.317 24.2673L305.818 24.7624H306.318C306.485 24.6799 306.819 24.4653 306.819 24.2673C306.819 24.0693 307.152 24.1848 307.319 24.2673H308.32L308.821 23.7723L309.321 24.2673L309.822 24.5149L310.823 24.7624L311.824 25.0099L312.825 25.2574C312.992 25.2574 313.526 25.2079 314.326 25.0099C314.827 24.7624 314.827 25.0099 315.828 24.2673C316.328 24.0198 316.328 24.0198 316.328 23.7723C316.328 23.5743 316.662 23.6898 316.829 23.7723L317.83 24.0198L319.332 24.2673C319.665 24.2673 320.433 24.2673 320.833 24.2673C321.334 24.2673 321.334 24.0198 321.334 23.7723C321.334 23.5743 321.667 23.3597 321.834 23.2772L322.835 23.5248L324.337 23.7723L325.338 24.0198C325.672 23.9373 326.439 23.7723 326.839 23.7723C327.34 23.7723 327.34 23.5248 328.341 23.0297C329.342 22.7822 329.342 22.7822 329.843 22.7822C330.343 22.7822 330.343 22.5347 331.344 21.7921C331.745 21.5941 331.845 21.7096 331.845 21.7921L332.846 22.0396L334.347 22.7822C334.681 22.7822 335.649 22.6337 336.85 22.0396C337.25 21.6436 337.684 21.7096 337.851 21.7921C338.351 21.8746 339.453 22.0396 339.853 22.0396C340.353 22.0396 340.854 22.0396 341.355 22.0396C341.755 22.0396 342.189 22.0396 342.356 22.0396V22.7822L342.856 23.0297L344.358 23.2772H345.859L346.36 23.7723C346.693 23.6898 347.461 23.5248 347.861 23.5248C348.262 23.5248 348.695 23.5248 348.862 23.5248L349.363 23.7723C349.53 23.7723 350.264 23.6238 351.865 23.0297C352.266 22.8317 352.366 22.7822 352.366 22.7822L353.868 22.5347H354.869C355.202 22.5347 356.07 22.4852 356.871 22.2871C357.271 22.0891 357.371 22.0396 357.371 22.0396L358.372 21.7921H358.873H359.874L361.375 22.0396L361.876 22.2871H362.376C362.543 22.1221 362.977 21.7921 363.377 21.7921C363.878 21.7921 364.379 21.7921 364.879 21.7921C365.279 21.7921 365.713 21.9571 365.88 22.0396L367.382 22.2871L367.882 22.7822V23.2772C368.216 23.1947 368.983 23.0297 369.384 23.0297C369.784 23.0297 369.884 23.0297 369.884 23.0297L371.386 23.7723C371.719 23.7723 372.487 23.7228 372.887 23.5248C373.288 23.3267 373.388 23.2772 373.388 23.2772H373.888L374.389 23.5248L375.891 23.7723L376.391 24.2673C376.725 24.3498 377.492 24.4653 377.893 24.2673C378.293 24.0693 378.393 24.1848 378.393 24.2673C378.56 24.1848 378.894 23.9703 378.894 23.7723C378.894 23.5743 379.227 23.5248 379.394 23.5248V23.0297L380.395 22.7822L381.396 23.0297L382.397 23.2772L383.398 23.0297C383.565 22.9472 383.999 22.7822 384.399 22.7822C384.8 22.7822 385.234 22.7822 385.4 22.7822H386.902L387.903 23.0297L388.404 23.5248C388.57 23.6073 389.004 23.7723 389.405 23.7723C389.805 23.7723 390.239 23.6073 390.406 23.5248H391.907L392.408 24.2673L393.909 24.0198C393.909 23.9373 394.009 23.7228 394.41 23.5248C394.81 23.3267 394.91 23.2772 394.91 23.2772H396.412V23.5248C396.412 23.6073 396.512 23.7723 396.912 23.7723C397.313 23.7723 398.08 23.9373 398.414 24.0198V24.2673L398.914 24.5149H399.415C399.749 24.3498 400.516 24.0198 400.917 24.0198C401.317 24.0198 401.417 24.1848 401.417 24.2673L402.418 24.5149L403.419 24.7624L403.92 25.0099C404.087 25.0924 404.52 25.2574 404.921 25.2574C405.421 25.2574 405.421 25.2574 405.421 25.0099C405.421 24.8119 405.755 24.7624 405.922 24.7624H406.923V25.0099L408.424 25.2574H408.925L409.425 25.0099L410.927 24.7624L411.428 24.2673L411.928 24.0198H412.929L413.93 24.2673L413.43 24.7624C413.596 24.7624 414.03 24.7624 414.431 24.7624C414.831 24.7624 415.265 24.7624 415.432 24.7624V25.0099L416.933 25.2574H417.934V24.7624C418.101 24.7624 418.535 24.7624 418.935 24.7624C419.336 24.7624 419.436 24.5974 419.436 24.5149L419.936 23.7723H420.937V23.5248C420.937 23.3597 421.038 23.0297 421.438 23.0297C421.838 23.0297 421.938 23.0297 421.938 23.0297C422.105 22.9472 422.539 22.7822 422.94 22.7822C423.34 22.7822 423.106 22.6172 422.94 22.5347L423.44 22.2871H424.942L426.443 22.5347H426.944L427.444 22.2871C427.611 22.2046 428.045 22.0396 428.445 22.0396C428.846 22.0396 428.946 21.8746 428.946 21.7921V21.0495L430.948 21.297L431.949 21.5446V22.0396H432.449C432.616 22.1221 433.05 22.2871 433.45 22.2871L433.951 22.7822C434.285 22.7822 435.052 22.7822 435.453 22.7822C435.853 22.7822 435.953 22.6172 435.953 22.5347C436.12 22.4521 436.554 22.2871 436.954 22.2871C437.455 22.2871 437.955 22.2871 438.456 22.2871L438.956 22.7822H440.458H440.958L441.459 23.2772C441.792 23.2772 442.56 23.2277 442.96 23.0297L444.462 22.7822V23.0297L445.964 23.2772L446.965 23.5248L446.464 24.0198H447.465H448.466V24.2673V24.7624H448.967C449.3 24.8449 450.068 25.0099 450.468 25.0099C450.869 25.0099 450.635 25.1749 450.468 25.2574L450.969 25.505H452.47H452.971L453.471 26H453.972C454.139 26 454.572 25.9505 454.973 25.7525C455.473 25.505 455.473 25.5049 455.473 25.2574C455.473 25.0099 455.974 25.2574 455.974 25.0099C455.974 24.8119 456.308 24.7624 456.474 24.7624H456.975V25.0099L457.976 25.2574L458.977 25.0099H459.478L459.978 24.7624L460.479 25.0099H460.979L461.48 24.7624V24.2673L461.98 24.0198H462.481L463.482 24.2673L463.982 23.7723L464.483 23.5248L465.484 23.7723L465.984 23.5248V23.0297L466.485 22.7822H467.486V22.5347L467.986 22.2871H468.987L470.489 22.7822L470.99 22.5347L471.991 22.2871L472.992 22.0396L473.492 22.5347L474.493 22.7822H475.494L476.495 23.2772H477.997L478.497 22.2871H478.998V21.5446H479.999V20.802L481 21.0495V1.00001L1 1L1.00002 15.604L1.00001 19.0693L1.5 19.5L2.5 20.5L4 20H6L6.5 21L7.50679 21.0495L9.50888 21.5446L11.2551 21.0495L12.5 22C12.5 22 14.1804 21.8746 14.5141 22.0396V22.5347C15.3483 22.6172 18 22 18 22L20.5203 22.2871C20.5203 22.2871 21.0209 22.7822 21.0209 23.0297L23.0229 22.2871C23.5235 22.2871 25.6257 22.6832 26.0261 22.2871C26.4265 21.8911 27.8613 22.5347 27.5276 22.2871C27.194 22.0396 28.5287 22.0396 28.5287 22.0396C28.5287 22.0396 29.8634 21.7096 31.5318 22.2871L33.5339 22.7822L35.536 23.0297C35.7028 23.1122 36.1366 23.2772 36.537 23.2772C36.9374 23.2772 37.0375 23.4422 37.0375 23.5248L36.0365 23.7723C36.3702 23.8548 37.3379 24.0198 38.5391 24.0198C39.7404 24.0198 39.3733 24.1848 39.0396 24.2673L40.0407 24.7624L41.0417 25.0099L42.0428 25.505C42.2096 25.505 42.6434 25.4554 43.0438 25.2574C43.4442 25.0594 43.878 25.1749 44.0448 25.2574L45.0459 24.7624C45.2127 24.7624 45.7466 24.8119 46.5475 25.0099C46.9479 25.0099 47.048 25.1749 47.048 25.2574L47.5485 25.505C47.8822 25.4224 48.5495 25.2079 48.5495 25.0099C48.5495 24.8119 48.8832 24.7624 49.0501 24.7624L49.5506 24.5149C49.7174 24.4323 50.1512 24.2673 50.5516 24.2673C51.0521 24.2673 51.0521 24.0198 51.5527 23.7723C52.0532 23.5248 51.5527 23.5248 52.0532 23.2772C52.4536 23.0792 52.5537 23.0297 52.5537 23.0297L53.5548 23.2772C53.8884 23.2772 54.6559 23.2772 55.0563 23.2772C55.4567 23.2772 55.5568 23.4422 55.5568 23.5248L56.5579 23.7723V24.2673L58.0594 24.5149V25.0099C58.2263 25.0099 58.8603 25.0099 60.0615 25.0099C61.2628 25.0099 59.8947 24.3498 59.0605 24.0198L60.0615 24.2673C60.2284 24.2673 60.6622 24.2673 61.0626 24.2673C61.5631 24.2673 61.5631 24.5149 62.5641 24.2673C63.365 24.0693 63.2315 24.1848 63.0647 24.2673L64.0657 24.5149L65.0667 24.7624C65.5673 24.7624 66.7685 24.7624 67.5694 24.7624C68.5704 24.7624 67.5694 25.0099 68.5704 25.0099V25.505C68.9041 25.5875 69.6715 25.7525 70.072 25.7525C70.5725 25.7525 70.5725 25.7525 71.5735 25.505C72.3744 25.3069 72.2409 25.4224 72.0741 25.505C72.2409 25.4224 72.6747 25.1584 73.0751 24.7624C73.5756 24.2673 73.5756 24.7624 74.0761 24.7624C74.4766 24.7624 74.5767 24.9274 74.5767 25.0099L75.0772 25.2574L76.0782 25.7525C76.4119 25.7525 77.0793 25.703 77.0793 25.505C77.0793 25.3069 77.4129 25.2574 77.5798 25.2574C77.9135 25.5049 78.5808 25.901 78.5808 25.505C78.5808 25.0099 79.5819 25.5049 80.0824 25.2574C80.5829 25.0099 81.584 25.0099 85.0876 23.7723C85.8884 23.3762 86.4223 23.6073 86.5892 23.7723C87.2565 23.8548 88.6914 24.0198 89.0918 24.0198C89.5923 24.0198 89.5923 23.7723 89.5923 23.5248C89.5923 23.3267 90.2597 22.7822 90.5933 22.5347H91.0939L92.5954 22.7822C93.0959 22.6997 94.2972 22.5347 95.098 22.5347C95.8989 22.5347 95.7654 22.5347 95.5985 22.5347L96.5996 22.7822C96.7664 23.0297 97.1001 23.5743 97.1001 23.7723C97.1001 24.0198 97.6006 24.0198 98.1012 24.0198C98.6017 24.0198 98.1012 23.7723 98.6017 23.2772C99.0021 22.8812 99.1022 23.1122 99.1022 23.2772H100.103L101.104 23.5248H101.605L101.104 24.2673L101.605 24.5149L102.105 25.2574C102.439 25.3399 103.206 25.505 103.607 25.505C104.007 25.505 104.441 25.3399 104.608 25.2574C104.107 25.5049 105.209 25.2079 105.609 25.0099C106.11 24.7624 106.11 25.0099 106.61 25.0099C107.111 25.0099 107.611 24.7624 108.112 24.7624C108.612 24.7624 109.113 24.5149 109.613 24.2673C110.114 24.0198 109.613 24.0198 110.114 23.7723C110.614 23.5248 111.115 23.5248 111.615 23.5248C112.116 23.5248 112.616 23.5248 113.117 23.2772L115.119 23.5248L115.619 23.7723C116.12 23.8548 117.221 24.0198 117.622 24.0198C118.022 24.0198 118.122 24.0198 118.122 24.0198C118.289 23.9373 118.723 23.7723 119.123 23.7723C119.624 23.7723 119.123 23.5248 119.624 23.2772C120.024 23.0792 119.457 23.0297 119.123 23.0297C119.29 22.9472 119.724 22.7822 120.124 22.7822C120.525 22.7822 120.625 22.6172 120.625 22.5347L121.125 22.0396C121.292 22.0396 121.726 22.0396 122.126 22.0396C122.527 22.0396 122.96 22.0396 123.127 22.0396H124.629L125.63 22.2871V22.7822C125.63 22.8647 125.63 23.0792 125.63 23.2772C125.63 23.4752 125.964 23.3597 126.13 23.2772C126.13 23.1947 126.23 23.0297 126.631 23.0297C127.031 23.0297 127.131 22.8647 127.131 22.7822C127.298 22.7822 127.732 22.7327 128.132 22.5347C128.633 22.2871 128.132 22.2871 128.132 22.0396C128.132 21.7921 128.633 22.0396 129.133 21.7921C129.534 21.5941 129.634 21.7096 129.634 21.7921H130.635L131.636 22.0396V22.5347V22.7822C131.97 22.6997 132.737 22.5347 133.138 22.5347C133.538 22.5347 133.638 22.5347 133.638 22.5347L135.14 22.2871L136.141 23.0297C136.474 23.0297 137.242 22.9802 137.642 22.7822C138.043 22.5842 137.809 22.2046 137.642 22.0396C137.976 22.1221 138.744 22.2871 139.144 22.2871C139.644 22.2871 140.145 22.2871 140.645 22.2871C141.146 22.2871 142.147 22.2871 142.147 22.5347C142.147 22.7327 142.481 22.7822 142.648 22.7822L143.148 23.0297C143.148 23.1122 143.248 23.2772 143.649 23.2772C144.049 23.2772 144.483 23.4422 144.65 23.5248V24.0198C145.15 24.1848 146.351 24.4158 147.152 24.0198C147.653 23.7723 147.653 23.5248 148.153 23.5248C148.554 23.5248 149.321 23.6898 149.655 23.7723L150.656 23.5248C150.99 23.4422 151.757 23.2277 152.157 23.0297C152.558 22.8317 152.992 23.1122 153.159 23.2772L154.16 23.7723H154.66C154.994 23.6073 155.661 23.2277 155.661 23.0297C155.661 22.8317 156.328 22.9472 156.662 23.0297L158.164 22.7822L158.664 23.0297C158.998 23.1122 159.765 23.2772 160.166 23.2772C160.566 23.2772 160.666 23.4422 160.666 23.5248L159.665 23.7723L160.666 24.2673L161.667 24.7624L162.168 25.2574C162.668 25.2574 164 25.5 164 25.5L164.5 25L166.5 25.5L167.5 24.7624L168.675 24.2673L169.784 23.2772L171.177 22.7822C171.177 22.7822 172.011 22.4521 172.178 22.5347L173.179 22.7822C173.513 22.7822 174.18 22.7327 174.18 22.5347C174.18 22.2871 174.681 22.2871 174.681 22.0396C174.681 21.8416 175.015 21.9571 175.181 22.0396L176.183 22.2871C176.516 22.3696 177.284 22.5347 177.684 22.5347C178.185 22.5347 178.185 22.2871 178.685 22.2871C179.186 22.2871 179.186 22.2871 179.686 21.7921C180.087 21.396 180.187 21.6271 180.187 21.7921L181.688 22.0396L182.189 22.5347C182.356 22.5347 182.789 22.5842 183.19 22.7822C183.59 22.9802 183.69 22.8647 183.69 22.7822C183.69 23.0297 183.79 23.5248 184.191 23.5248C184.591 23.5248 185.025 23.3597 185.192 23.2772C185.359 23.2772 185.793 23.2772 186.193 23.2772C186.693 23.2772 187.194 23.0297 187.695 22.7822C188.095 22.5842 187.194 22.3696 186.693 22.2871H187.194C187.694 22.3696 188.896 22.5347 189.697 22.5347C190.497 22.5347 190.03 22.8647 189.697 23.0297L190.197 23.5248C190.364 23.6073 190.798 23.7228 191.198 23.5248C191.599 23.3267 191.699 23.2772 191.699 23.2772L193.2 22.7822L193.701 23.0297L194.201 23.5248C194.535 23.5248 195.302 23.4257 195.703 23.0297C196.103 22.6337 195.87 22.5347 195.703 22.5347L196.704 23.0297V23.5248L197.204 23.7723L198.205 23.5248L199.206 23.2772C199.874 23.3597 201.209 23.4752 201.209 23.2772C201.209 23.0297 201.709 23.2772 201.709 22.7822C201.709 22.3861 202.376 22.6172 202.71 22.7822L203.711 23.0297L204.212 23.2772C204.379 23.6073 204.812 24.1683 205.213 23.7723C205.713 23.2772 205.213 23.5248 205.713 23.2772C206.214 23.0297 206.214 23.2772 207.215 23.7723C207.715 24.0198 208.716 23.7723 209.217 23.7723C209.717 23.7723 209.217 23.5248 209.717 23.2772C210.218 23.0297 210.718 23.0297 211.219 23.0297C211.619 23.0297 212.721 23.0297 213.221 23.0297L212.22 23.5248L213.221 23.7723C213.388 23.9373 213.822 24.2673 214.222 24.2673C214.723 24.2673 216.224 24.2673 216.725 24.2673C217.125 24.2673 216.892 24.5974 216.725 24.7624H218.226L219.227 24.2673L220.228 24.5149C220.228 24.5149 220.228 24.4653 220.228 24.2673C220.228 24.0198 220.228 24.2673 220.729 23.5248C220.729 23.3267 220.729 23.2772 220.729 23.2772C220.896 23.2772 221.33 23.2277 221.73 23.0297C222.23 22.7822 222.731 23.0297 223.232 23.0297C223.632 23.0297 224.399 23.0297 224.733 23.0297V23.2772L225.234 23.7723H226.235L226.735 24.2673L227.736 24.5149H229.738C229.738 24.4323 229.938 24.1683 230.739 23.7723C231.74 23.2772 231.74 23.7723 232.241 23.7723C232.741 23.7723 232.741 23.5248 233.242 23.5248C233.742 23.5248 234.243 23.2772 234.743 23.0297C235.144 22.8317 235.244 22.9472 235.244 23.0297L235.745 23.7723C235.911 23.8548 236.345 24.0198 236.746 24.0198C237.246 24.0198 237.246 23.7723 237.747 23.7723C238.247 23.7723 237.747 23.5248 238.748 23.0297C239.549 22.6337 239.415 22.8647 239.248 23.0297L240.249 23.5248H241.25C241.417 23.5248 242.051 23.3762 243.252 22.7822C244.454 22.1881 244.087 22.5347 243.753 22.7822L244.253 23.2772C244.754 23.3597 245.855 23.5248 246.255 23.5248C246.756 23.5248 246.756 23.2772 246.756 23.0297C246.756 22.7822 247.257 22.7822 247.757 22.7822C248.157 22.7822 248.258 23.1122 248.258 23.2772C248.424 23.2772 248.958 23.1782 249.759 22.7822C250.26 22.5347 250.26 22.2871 250.76 22.2871C251.161 22.2871 251.594 22.6172 251.761 22.7822C252.095 22.6997 252.862 22.4852 253.263 22.2871C253.663 22.0891 254.097 22.2046 254.264 22.2871C254.598 22.2871 255.365 22.2871 255.765 22.2871C256.166 22.2871 256.6 22.6172 256.766 22.7822L258.21 22.8397Z" stroke="white"/>
</svg>
