<?xml version="1.0" encoding="UTF-8"?>
<svg id="Layer_2" data-name="Layer 2" xmlns="http://www.w3.org/2000/svg" viewBox="0 0 475.6 187.09">
  <defs>
    <style>
      .cls-1 {
        fill: #024e27;
      }

      .cls-1, .cls-2 {
        stroke-width: 0px;
      }

      .cls-2 {
        fill: #f58220;
      }
    </style>
  </defs>
  <g id="Layer_1-2" data-name="Layer 1">
    <g>
      <g>
        <path class="cls-1" d="M467.74,147.94c.62-8.91-5.62-15.43-12.61-18.04-1.35-.5-2.71-1-4.11-1.52,2.71-3.42,7.54-4.38,12.32-2.32,7.44,3.2,11.2,9.65,11.81,17.05.84,10.22.21,2.62.21,13.1h-207.55v-3.45c0-15.69.19-31.38-.08-47.07-.17-9.89,2.33-19.11,5.61-28.25.2-.57.42-1.15.94-2.58-8.23,1.5-15.89,2.9-23.86,4.35-.06-1.21-.16-2.32-.17-3.44-.02-6.74-.02-13.48-.01-20.22.01-7.98-4.24-13.4-10.66-17.39-.74-.46-2.31-.36-3.07.13-6.29,4.01-10.36,9.46-10.39,17.26-.02,7.78,0,15.56,0,23.64-7.89-1.44-15.54-2.84-23.9-4.36.6,1.88.89,2.93,1.27,3.95,3.22,8.53,5.29,17.25,5.07,26.45-.13,5.68-.04,11.37,0,17.06v15.09c-.06,6.19-.02,12.38-.02,18.87H.36c-.09-.89-.24-1.7-.25-2.5-.01-8.85-.29.25.08-8.58.33-8.01,3.87-14.51,11.02-18.68,4.18-2.44,10.96-1.68,13.34,1.47-3.26,1.73-6.68,3.23-9.75,5.25-3.84,2.54-6.45,6.38-6.69,10.95-.4,7.32-.11-3.28-.11,4.26,1.1.07,2.02.18,2.94.18,21.38,0,150.54.01,171.91-.02,1.12,0,2.25-.32,3.36-.49,4.78.24,9.56.48,14.82.74-.28-5.4-.51-10.12-.75-14.84l.87-10.96c-.41-9.64.21-19.32-1.5-28.57-1.71-9.24-5.75-18.05-8.98-27.72,8.94.75,18.08,1.52,27.65,2.32,0-3.82.2-8.07-.03-12.31-.68-12.68,7.96-22.79,18.01-27.15,1.07-.46,2.67-.47,3.76-.02,11.12,4.51,18.18,15.09,18.24,27.09.02,4.19,0,8.38,0,12.31,9.39-.75,18.5-1.48,27.38-2.2-3.22,9.69-7.2,18.51-8.92,27.74-1.7,9.19-.35,18.81-.78,28.52l-.14,7.82v17.63h191.86l.04-.54Z"/>
        <path class="cls-1" d="M310.29,130.85h-22.69c-2.07,0-3.74-1.68-3.74-3.75.03-11,.17-7.15-.08-21.42-.17-9.89,2.33-19.11,5.61-28.25.21-.58.42-1.15.95-2.58l3.36-9.13,8.68-.76c-3.22,9.69-7.86,20.31-9.57,29.55-1.71,9.19-.35,18.81-.78,28.52h18.26v7.82Z"/>
        <path class="cls-1" d="M152.07,130.85h37.51c2.07,0,3.74-1.68,3.74-3.75-.03-11-.16-7.15.08-21.42.17-9.89-2.32-19.11-5.61-28.25-.21-.58-.42-1.15-.94-2.58l-3.37-9.13-8.68-.76c3.22,9.69,7.86,20.31,9.58,29.55,1.7,9.19.35,18.81.78,28.52h-33.09v7.82Z"/>
        <path class="cls-1" d="M183.27,130.85h-59.44c3.44-5.61,7.73-9.1,13.74-11.01.18,3,2,3.44,4.38,3.34,3.13-.13,6.27-.03,9.51-.03,1.05-12.77,1.24-24.99-8.87-34.7,5.19-1.54,11.95,1.89,14.12,7.54,1.51,3.94,2.37,8.25,2.8,12.47.47,4.68.11,9.44.11,14.44h23.87l-.21,7.96Z"/>
        <path class="cls-1" d="M93.61,130.72H27.15c3.44-5.61,7.73-9.1,13.74-11.01.18,3,2,3.44,4.38,3.34,3.13-.13,6.27-.03,9.51-.03,1.05-12.77,1.24-24.99-8.87-34.7,5.19-1.54,11.95,1.89,14.12,7.54,1.51,3.94,2.37,8.25,2.8,12.47.47,4.68.11,9.44.11,14.44h30.89"/>
        <path class="cls-1" d="M68.8,130.72h53.17c-3.44-5.61-7.73-9.1-13.74-11.01-.18,3-2,3.44-4.38,3.34-3.13-.13-6.27-.03-9.51-.03-1.05-12.77-1.24-24.99,8.88-34.7-5.19-1.54-11.95,1.89-14.12,7.54-1.51,3.94-2.38,8.25-2.8,12.47-.47,4.68-.11,9.44-.11,14.44h-17.59"/>
        <path class="cls-1" d="M76.89,139.15c2-2.03,3.99-4.04,5.99-6.06,2.01,2.07,4,4.12,5.98,6.16-1.88,1.83-3.96,3.86-5.97,5.82-1.91-1.89-3.95-3.9-6-5.92"/>
        <path class="cls-1" d="M347.49,139.15c2-2.03,3.99-4.04,5.99-6.06,2.01,2.07,4,4.12,5.98,6.16-1.88,1.83-3.97,3.86-5.97,5.82-1.91-1.89-3.95-3.9-6-5.92"/>
        <path class="cls-1" d="M429.94,139.15c2-2.03,3.99-4.04,5.99-6.06,2.01,2.07,4,4.12,5.98,6.16-1.88,1.83-3.96,3.86-5.97,5.82-1.91-1.89-3.95-3.9-6-5.92"/>
        <path class="cls-1" d="M93.4,139.15c2-2.03,3.99-4.04,5.99-6.06,2.01,2.07,4,4.12,5.98,6.16-1.88,1.83-3.96,3.86-5.97,5.82-1.91-1.89-3.95-3.9-6-5.92"/>
        <path class="cls-1" d="M133.64,70.78c2-2.03,3.99-4.03,5.99-6.06,2.01,2.07,4,4.12,5.98,6.16-1.88,1.83-3.96,3.86-5.97,5.82-1.91-1.89-3.95-3.9-6-5.92"/>
        <path class="cls-1" d="M380.54,70.78c2-2.03,3.99-4.03,5.99-6.06,2.01,2.07,4,4.12,5.98,6.16-1.88,1.83-3.97,3.86-5.97,5.82-1.91-1.89-3.95-3.9-6-5.92"/>
        <path class="cls-1" d="M232.14,6.06c2-2.03,3.99-4.04,5.99-6.06,2.01,2.07,4,4.12,5.98,6.16-1.88,1.83-3.97,3.86-5.97,5.82-1.91-1.89-3.95-3.9-6-5.92"/>
        <path class="cls-1" d="M224.48,16.7c2-2.03,3.99-4.04,5.99-6.06,2.01,2.07,4,4.12,5.98,6.16-1.88,1.84-3.97,3.86-5.97,5.82-1.91-1.89-3.95-3.9-6-5.92"/>
        <path class="cls-1" d="M239.79,16.7c2-2.03,3.99-4.04,5.99-6.06,2.01,2.07,4,4.12,5.98,6.16-1.88,1.84-3.97,3.86-5.98,5.82-1.91-1.89-3.95-3.9-6-5.92"/>
        <path class="cls-1" d="M48.51,70.78c2-2.03,3.99-4.03,5.99-6.06,2.01,2.07,4,4.12,5.98,6.16-1.88,1.83-3.97,3.86-5.97,5.82-1.91-1.89-3.95-3.9-6-5.92"/>
        <path class="cls-1" d="M330.63,96.93c0-1.88-1.12-2.82-3.35-2.82h-.05c-2.25.01-3.38.95-3.38,2.82v5.59h-7.76v-5.59c0-5.82,3.72-8.73,11.17-8.73s11.13,2.91,11.13,8.73v25.43c0,5.83-3.71,8.75-11.13,8.75-7.44-.01-11.17-2.93-11.17-8.75v-6.97c0-5.82,2.84-8.74,8.53-8.75,2.47,0,4.47.44,6.01,1.33v-11.04ZM323.85,122.35c0,1.88,1.14,2.82,3.4,2.82s3.37-.94,3.37-2.82v-6.99c-.02-1.87-1.14-2.8-3.37-2.8s-3.4.94-3.4,2.82v6.97Z"/>
        <polygon class="cls-1" points="362.88 92.45 352.35 124.52 363.35 124.52 363.35 130.43 343.6 130.43 343.6 126.82 354.13 94.77 343.96 94.77 343.96 88.85 362.88 88.85 362.88 92.45"/>
        <path class="cls-1" d="M377.15,112.61v9.75c0,1.88,1.12,2.82,3.37,2.82s3.4-.94,3.4-2.82v-5.59h7.76v5.59c0,5.82-3.72,8.74-11.16,8.75-7.42,0-11.14-2.92-11.14-8.75v-25.43c0-5.82,3.71-8.73,11.14-8.73s11.16,2.91,11.16,8.73v15.68h-14.54ZM377.15,106.67h6.77v-9.75c0-1.86-1.12-2.8-3.37-2.82h-.06c-2.23,0-3.34.94-3.34,2.82v9.75Z"/>
        <path class="cls-1" d="M405.48,112.61v9.75c0,1.88,1.12,2.82,3.38,2.82s3.4-.94,3.4-2.82v-5.59h7.76v5.59c0,5.82-3.72,8.74-11.16,8.75-7.43,0-11.14-2.92-11.14-8.75v-25.43c0-5.82,3.71-8.73,11.14-8.73s11.16,2.91,11.16,8.73v15.68h-14.54ZM405.48,106.67h6.78v-9.75c0-1.86-1.13-2.8-3.38-2.82h-.05c-2.23,0-3.35.94-3.35,2.82v9.75Z"/>
        <polygon class="cls-1" points="445.33 92.45 434.8 124.52 445.8 124.52 445.8 130.43 426.05 130.43 426.05 126.82 436.58 94.77 426.41 94.77 426.41 88.85 445.33 88.85 445.33 92.45"/>
      </g>
      <g>
        <path class="cls-2" d="M214.26,138.08h48.41c.11.26.21.52.31.77-1.62.92-3.14,2.12-4.87,2.71-2.55.86-5.26,1.22-7.87,1.92-1.27.34-2.44,1.06-3.71,1.45-.91.28-1.91.42-2.87.42-4.05-.02-8.16.24-12.15-.3-3.69-.5-7.29-1.8-10.89-2.89-1.77-.54-3.47-1.37-5.15-2.18-.6-.29-1.03-.91-1.54-1.38.11-.17.22-.34.33-.51"/>
        <path class="cls-2" d="M233.53,92.6c.2,2.63,0,4.88.6,6.91,1.01,3.45,2.07,7.02,3.91,10.06,4.06,6.71,4.21,16.15-.18,21.32-.57-3.44-.91-6.95-1.8-10.33-.63-2.42-1.75-4.81-3.09-6.94-3.66-5.83-3.66-15,.56-21.02"/>
        <path class="cls-2" d="M249.07,131.37c-.1-4.93-1.35-8.96-3.87-12.76-2.8-4.23-2.16-8.63.9-13.47.09,1.6.18,2.52.2,3.44.06,3.14,1.24,5.81,3.12,8.31,3.49,4.64,3.43,9.93-.35,14.48"/>
        <path class="cls-2" d="M228.29,131.1c-.09-1.39.08-2.71-.3-3.84-.89-2.64-1.67-5.42-3.16-7.72-2.49-3.84-2.7-10.66.6-13.82-.44,5.19,1.81,9.06,4.36,12.98,2.52,3.89,1.63,9.68-1.5,12.4"/>
      </g>
      <g>
        <path class="cls-2" d="M11.98,183.97h-6.25l-1.19,2.88H1.35l6-13.46h3.08l6.02,13.46h-3.27l-1.19-2.88ZM11,181.61l-2.13-5.15-2.13,5.15h4.27Z"/>
        <path class="cls-2" d="M31.75,176.36v2.77c-.25-.02-.44-.04-.67-.04-1.65,0-2.75.9-2.75,2.88v4.88h-3v-10.34h2.86v1.36c.73-1,1.96-1.52,3.56-1.52Z"/>
        <path class="cls-2" d="M50.46,180.95v5.9h-2.81v-1.29c-.56.94-1.63,1.44-3.15,1.44-2.42,0-3.86-1.35-3.86-3.13s1.29-3.1,4.44-3.1h2.38c0-1.29-.77-2.04-2.38-2.04-1.1,0-2.23.36-2.98.96l-1.08-2.1c1.13-.81,2.81-1.25,4.46-1.25,3.15,0,4.98,1.46,4.98,4.6ZM47.46,183.59v-1.06h-2.06c-1.4,0-1.85.52-1.85,1.21,0,.75.63,1.25,1.69,1.25,1,0,1.87-.46,2.21-1.4Z"/>
        <path class="cls-2" d="M72.13,181.68c0,3.25-2.25,5.33-5.15,5.33-1.38,0-2.5-.44-3.25-1.35v1.19h-2.86v-14.27h3v5.02c.77-.85,1.83-1.25,3.12-1.25,2.9,0,5.15,2.08,5.15,5.33ZM69.09,181.68c0-1.79-1.13-2.87-2.63-2.87s-2.63,1.08-2.63,2.87,1.13,2.86,2.63,2.86,2.63-1.08,2.63-2.86Z"/>
        <path class="cls-2" d="M81.45,173.4c0-.94.75-1.67,1.87-1.67s1.87.69,1.87,1.62c0,1-.75,1.73-1.87,1.73s-1.87-.73-1.87-1.67ZM81.82,176.51h3v10.34h-3v-10.34Z"/>
        <path class="cls-2" d="M94.53,181.68c0-3.12,2.4-5.33,5.77-5.33,2.17,0,3.88.94,4.63,2.63l-2.33,1.25c-.56-.98-1.38-1.42-2.33-1.42-1.52,0-2.71,1.06-2.71,2.87s1.19,2.86,2.71,2.86c.94,0,1.77-.42,2.33-1.42l2.33,1.27c-.75,1.65-2.46,2.62-4.63,2.62-3.36,0-5.77-2.21-5.77-5.33Z"/>
        <path class="cls-2" d="M136.27,186.86l-2.6-3.75h-2.86v3.75h-3.11v-13.46h5.83c3.6,0,5.85,1.87,5.85,4.88,0,2.02-1.02,3.5-2.77,4.25l3.02,4.33h-3.35ZM133.35,175.93h-2.54v4.69h2.54c1.9,0,2.86-.88,2.86-2.35s-.96-2.35-2.86-2.35Z"/>
        <path class="cls-2" d="M159.39,182.53h-7.83c.29,1.29,1.38,2.08,2.96,2.08,1.1,0,1.88-.33,2.6-1l1.6,1.73c-.96,1.1-2.4,1.67-4.27,1.67-3.58,0-5.9-2.25-5.9-5.33s2.36-5.33,5.52-5.33,5.38,2.04,5.38,5.37c0,.23-.04.56-.06.81ZM151.52,180.78h5.1c-.21-1.31-1.19-2.15-2.54-2.15s-2.35.83-2.56,2.15Z"/>
        <path class="cls-2" d="M168.13,185.89l1-2.15c.92.6,2.33,1,3.6,1,1.38,0,1.9-.36,1.9-.94,0-1.69-6.25.04-6.25-4.1,0-1.96,1.77-3.35,4.79-3.35,1.42,0,3,.33,3.98.9l-1,2.13c-1.02-.58-2.04-.77-2.98-.77-1.35,0-1.92.42-1.92.96,0,1.77,6.25.06,6.25,4.13,0,1.92-1.79,3.29-4.88,3.29-1.75,0-3.52-.48-4.48-1.12Z"/>
        <path class="cls-2" d="M193.71,186.36c-.62.44-1.52.65-2.44.65-2.44,0-3.86-1.25-3.86-3.71v-4.25h-1.6v-2.31h1.6v-2.52h3v2.52h2.58v2.31h-2.58v4.21c0,.88.48,1.36,1.29,1.36.44,0,.88-.13,1.21-.38l.81,2.12Z"/>
        <path class="cls-2" d="M212.24,180.95v5.9h-2.81v-1.29c-.56.94-1.63,1.44-3.15,1.44-2.42,0-3.86-1.35-3.86-3.13s1.29-3.1,4.44-3.1h2.38c0-1.29-.77-2.04-2.38-2.04-1.1,0-2.23.36-2.98.96l-1.08-2.1c1.13-.81,2.81-1.25,4.46-1.25,3.15,0,4.98,1.46,4.98,4.6ZM209.24,183.59v-1.06h-2.06c-1.4,0-1.85.52-1.85,1.21,0,.75.63,1.25,1.69,1.25,1,0,1.87-.46,2.21-1.4Z"/>
        <path class="cls-2" d="M233.07,176.51v10.34h-2.85v-1.23c-.79.9-1.94,1.38-3.21,1.38-2.6,0-4.42-1.46-4.42-4.65v-5.85h3v5.4c0,1.73.77,2.5,2.1,2.5s2.38-.88,2.38-2.79v-5.11h3Z"/>
        <path class="cls-2" d="M249.97,176.36v2.77c-.25-.02-.44-.04-.67-.04-1.65,0-2.75.9-2.75,2.88v4.88h-3v-10.34h2.86v1.36c.73-1,1.96-1.52,3.56-1.52Z"/>
        <path class="cls-2" d="M268.68,180.95v5.9h-2.81v-1.29c-.56.94-1.63,1.44-3.15,1.44-2.42,0-3.86-1.35-3.86-3.13s1.29-3.1,4.44-3.1h2.38c0-1.29-.77-2.04-2.38-2.04-1.1,0-2.23.36-2.98.96l-1.08-2.1c1.13-.81,2.81-1.25,4.46-1.25,3.15,0,4.98,1.46,4.98,4.6ZM265.68,183.59v-1.06h-2.06c-1.4,0-1.85.52-1.85,1.21,0,.75.63,1.25,1.69,1.25,1,0,1.87-.46,2.21-1.4Z"/>
        <path class="cls-2" d="M289.66,180.93v5.92h-3v-5.46c0-1.67-.77-2.44-2.1-2.44-1.44,0-2.48.88-2.48,2.79v5.11h-3v-10.34h2.86v1.21c.81-.88,2.02-1.37,3.42-1.37,2.44,0,4.29,1.42,4.29,4.58Z"/>
        <path class="cls-2" d="M306.73,186.36c-.61.44-1.52.65-2.44.65-2.44,0-3.86-1.25-3.86-3.71v-4.25h-1.6v-2.31h1.6v-2.52h3v2.52h2.58v2.31h-2.58v4.21c0,.88.48,1.36,1.29,1.36.44,0,.88-.13,1.21-.38l.81,2.12Z"/>
        <path class="cls-2" d="M338.4,180.95v5.9h-2.81v-1.29c-.56.94-1.63,1.44-3.15,1.44-2.42,0-3.86-1.35-3.86-3.13s1.29-3.1,4.44-3.1h2.38c0-1.29-.77-2.04-2.38-2.04-1.1,0-2.23.36-2.98.96l-1.08-2.1c1.13-.81,2.81-1.25,4.46-1.25,3.15,0,4.98,1.46,4.98,4.6ZM335.4,183.59v-1.06h-2.06c-1.4,0-1.85.52-1.85,1.21,0,.75.63,1.25,1.69,1.25,1,0,1.87-.46,2.21-1.4Z"/>
        <path class="cls-2" d="M359.38,180.93v5.92h-3v-5.46c0-1.67-.77-2.44-2.1-2.44-1.44,0-2.48.88-2.48,2.79v5.11h-3v-10.34h2.86v1.21c.81-.88,2.02-1.37,3.42-1.37,2.44,0,4.29,1.42,4.29,4.58Z"/>
        <path class="cls-2" d="M380.32,172.59v14.27h-2.87v-1.19c-.75.9-1.85,1.35-3.23,1.35-2.92,0-5.17-2.08-5.17-5.33s2.25-5.33,5.17-5.33c1.27,0,2.35.4,3.1,1.25v-5.02h3ZM377.38,181.68c0-1.79-1.15-2.87-2.63-2.87s-2.65,1.08-2.65,2.87,1.15,2.86,2.65,2.86,2.63-1.08,2.63-2.86Z"/>
        <path class="cls-2" d="M413.22,179.91h2.85v5.46c-1.48,1.11-3.52,1.71-5.44,1.71-4.23,0-7.35-2.9-7.35-6.96s3.12-6.96,7.4-6.96c2.37,0,4.33.81,5.63,2.33l-2,1.85c-.98-1.04-2.12-1.52-3.48-1.52-2.61,0-4.4,1.75-4.4,4.31s1.79,4.31,4.37,4.31c.85,0,1.63-.15,2.42-.58v-3.94Z"/>
        <path class="cls-2" d="M432.85,176.36v2.77c-.25-.02-.44-.04-.67-.04-1.65,0-2.75.9-2.75,2.88v4.88h-3v-10.34h2.86v1.36c.73-1,1.96-1.52,3.56-1.52Z"/>
        <path class="cls-2" d="M442.04,173.4c0-.94.75-1.67,1.87-1.67s1.87.69,1.87,1.62c0,1-.75,1.73-1.87,1.73s-1.87-.73-1.87-1.67ZM442.41,176.51h3v10.34h-3v-10.34Z"/>
        <path class="cls-2" d="M455.88,172.59h3v14.27h-3v-14.27Z"/>
        <path class="cls-2" d="M469.36,172.59h3v14.27h-3v-14.27Z"/>
      </g>
    </g>
  </g>
</svg>