<svg width="426" height="417" viewBox="0 0 426 417" fill="none" xmlns="http://www.w3.org/2000/svg">
<path d="M108.594 36.6096L106.733 35.7777C98.4081 32.0572 89.0129 38.1994 89.0129 47.318C89.0129 55.3422 81.5669 61.333 73.7403 59.5633L67.4743 58.1465C59.7079 56.3904 53.381 64.4331 56.9164 71.5677C60.0309 77.8527 55.4583 85.2217 48.4439 85.2217H37.0617C26.0293 85.2217 18.0976 95.8296 21.2176 106.412L24.7805 118.496C26.864 125.562 22.6107 132.934 15.4503 134.667C6.21217 136.904 2.48998 148.029 8.52264 155.374L11.0995 158.512C16.1743 164.691 14.4563 173.951 7.5028 177.899C-0.0307178 182.176 -1.28385 192.518 5.01033 198.47L23.6862 216.131C29.6041 221.728 26.4304 231.684 18.3656 232.823L15.0634 233.29C5.61537 234.624 4.51473 247.834 13.6116 250.713C20.2338 252.81 22.0593 261.316 16.8804 265.945L11.4427 270.805C4.13926 277.333 6.30452 289.271 15.4352 292.819L22.6117 295.607C30.6967 298.748 33.804 308.56 29.0008 315.782C22.9991 324.807 29.469 336.88 40.307 336.88H53.8295C62.924 336.88 69.7139 345.249 67.8397 354.148C65.8076 363.797 73.9098 372.564 83.6888 371.298L91.5926 370.274C98.7659 369.345 104.616 375.944 102.833 382.954C100.899 390.562 107.892 397.428 115.464 395.355L136.28 389.655C144.855 387.307 153.313 393.761 153.313 402.651C153.313 414.004 166.493 420.268 175.296 413.1L185.506 404.786C190.753 400.513 198.644 402.645 201.026 408.979C203.422 415.351 211.386 417.46 216.622 413.109L227.569 404.013C233.213 399.322 241.279 398.929 247.353 403.049L249.667 404.619C257.213 409.738 267.558 406.545 270.906 398.064C273.768 390.817 281.924 387.215 289.208 389.982L290.534 390.486C298.625 393.559 307.66 389.36 310.526 381.193L311.169 379.361C313.378 373.067 319.936 369.41 326.451 370.838C333.96 372.484 341.281 367.391 342.35 359.779L342.527 358.515C343.525 351.414 349.6 346.132 356.771 346.132H363.919C372.065 346.132 378.322 338.891 377.19 330.825C376.21 323.846 380.932 317.258 387.838 315.853C395.64 314.265 400.371 306.128 397.734 298.616L396.983 296.477C394.832 290.348 398.403 283.694 404.7 282.1L405.631 281.864C413.211 279.944 416.086 270.692 410.928 264.814C406.643 259.93 407.796 252.363 413.342 248.977L417.865 246.216C423.394 242.84 423.376 234.804 417.832 231.454C413.087 228.586 412.235 222.054 416.085 218.065L421.078 212.892C426.159 207.628 426.474 199.388 421.811 193.751L416.963 187.892C412.091 182.003 412.091 173.483 416.963 167.595C423.577 159.6 420.899 147.516 411.526 143.065L402.674 138.862C395.068 135.25 393.29 125.218 399.192 119.212C405.878 112.41 402.566 100.914 393.286 98.7103L388.32 97.5313C381.58 95.931 377.891 88.6603 380.58 82.2759C383.692 74.8883 378.267 66.7175 370.251 66.7175H356.909C350.667 66.7175 346.239 60.6286 348.163 54.6897C350.087 48.7508 345.66 42.6619 339.417 42.6619H322.449C316.204 42.6619 311.142 37.5996 311.142 31.355C311.142 22.5274 301.478 17.1046 293.943 21.7044L293.571 21.9313C288.185 25.2194 281.157 23.5768 277.787 18.242L274.184 12.5398C270.117 6.10225 261.18 4.98951 255.658 10.2332C250.105 15.5071 241.108 14.3463 237.075 7.83545L236.239 6.48553C231.145 -1.73831 219.273 -1.99673 213.826 5.99765L212.824 7.46799C208.053 14.4698 198.233 15.8432 191.628 10.536C184.761 5.01759 174.52 6.62888 169.815 14.0768L168.755 15.7542C164.512 22.4691 155.666 24.5367 148.887 20.3979C141.082 15.6329 130.868 19.1706 127.682 27.7425L127.305 28.7574C124.506 36.2873 115.929 39.8872 108.594 36.6096Z" fill="#F3EBDD"/>
</svg>
