<svg width="40" height="42" viewBox="0 0 40 42" fill="none" xmlns="http://www.w3.org/2000/svg">
    <g clip-path="url(#clip0_3_39)">
        <path
            d="M24.9359 0.0553894C30.014 0.0553894 35.0548 0.0553894 40.1182 0.0553894C40.1182 14.0415 40.1182 28.0007 40.1182 41.98C26.788 41.98 13.4676 41.98 0.118225 41.98C0.118225 28.0277 0.118225 14.0684 0.118225 0.0553894C8.37179 0.0553894 16.6353 0.0553894 24.9359 0.0553894ZM19.8566 6.25356C17.8111 6.28278 15.9616 6.89669 14.4157 8.33104C13.1875 9.47064 12.2485 10.843 12.0381 12.5768C11.8868 13.8235 11.9376 15.0989 11.9273 16.3618C11.9219 17.0152 11.9799 17.6691 12.0126 18.3958C11.7205 18.3958 11.4481 18.4369 11.1929 18.3854C10.8689 18.3202 10.5514 18.1984 10.2444 18.0671C9.77222 17.8651 9.31638 17.9276 8.8811 18.1444C8.01438 18.5759 7.86627 19.56 8.62236 20.1719C9.05966 20.5256 9.60935 20.7324 10.1186 20.9828C10.4628 21.1522 10.837 21.2566 11.1759 21.4352C11.8283 21.7789 11.992 22.251 11.6537 22.9331C11.3033 23.6393 10.943 24.3515 10.4958 24.9914C9.32241 26.6705 7.80388 27.8506 5.81196 28.266C5.10022 28.4145 4.85626 29.0738 5.35246 29.6362C5.58732 29.9024 5.89522 30.1576 6.21713 30.2691C7.09174 30.5718 7.98845 30.808 8.88351 31.0407C9.09793 31.0965 9.19146 31.1677 9.23066 31.3979C9.29312 31.7648 9.38821 32.1273 9.4935 32.4839C9.63232 32.9542 9.91838 33.1573 10.3841 33.1141C10.6659 33.088 10.9445 33.0212 11.224 32.9693C12.3218 32.7651 13.432 32.678 14.4579 33.2043C15.1496 33.5591 15.7786 34.0562 16.4131 34.5231C17.9798 35.6761 19.7013 35.9942 21.5581 35.6056C22.7415 35.3578 23.7218 34.6693 24.6449 33.9155C25.8498 32.9316 27.1899 32.6737 28.6578 32.8981C29.0607 32.9597 29.4607 33.0531 29.8655 33.0863C30.3798 33.1281 30.6454 32.9126 30.7851 32.3909C30.8714 32.0683 30.9564 31.7433 31.0096 31.4139C31.0486 31.1727 31.1527 31.0917 31.3812 31.0329C32.2766 30.802 33.179 30.579 34.045 30.2551C34.4127 30.1177 34.7632 29.7899 35.0042 29.4562C35.3401 28.9906 35.0765 28.3945 34.5577 28.2846C31.5421 27.6461 29.7366 25.553 28.5218 22.7686C28.2794 22.2129 28.4651 21.7558 28.993 21.4753C29.3536 21.2839 29.736 21.1319 30.1188 20.9933C30.7172 20.7767 31.3028 20.5455 31.762 20.064C32.2402 19.5626 32.2321 18.8484 31.7122 18.399C31.1837 17.942 30.5837 17.7979 29.9127 18.0382C29.5062 18.1837 29.0954 18.3349 28.6745 18.412C28.3065 18.4795 28.2431 18.3606 28.2524 17.9687C28.287 16.5231 28.3622 15.0759 28.3288 13.6317C28.2709 11.1359 27.0834 9.25451 25.2072 7.81791C23.6418 6.61928 21.8472 6.19333 19.8566 6.25356Z"
            fill="#FFFC00" />
        <path
            d="M27.9937 23.7456C28.8914 25.5571 30.0711 27.0753 31.7627 28.0602C32.5126 28.4969 33.3509 28.7661 34.1708 29.1207C34.022 29.42 33.6709 29.5935 33.3247 29.7034C32.6107 29.9302 31.8871 30.154 31.1518 30.2673C30.5602 30.3584 30.2452 30.6368 30.1357 31.2312C30.0869 31.4964 29.9868 31.7545 29.9627 32.0212C29.9346 32.3329 29.7904 32.3678 29.5426 32.3248C29.107 32.2487 28.6685 32.189 28.2301 32.1316C26.6819 31.9292 25.2951 32.3187 24.0552 33.3347C23.2616 33.9851 22.4254 34.5865 21.4276 34.8449C19.7784 35.272 18.2422 34.9867 16.8271 33.9863C16.1463 33.5052 15.4741 33.0054 14.7632 32.578C13.8865 32.0508 12.9044 32.0449 11.9301 32.1211C11.442 32.1594 10.9555 32.2493 10.4745 32.3487C10.2141 32.4025 10.0702 32.351 10.0479 32.0598C9.96114 30.9265 9.54604 30.2191 8.30547 30.1618C7.62274 30.1303 6.94963 29.7555 6.28389 29.5015C6.09441 29.4292 5.94601 29.238 5.7453 29.0739C6.32649 28.882 6.85176 28.7547 7.34163 28.5389C9.52863 27.5747 10.9934 25.8268 12.0549 23.6547C12.094 23.5746 12.1348 23.4955 12.1724 23.4147C12.7361 22.2042 12.4406 21.2577 11.2736 20.6755C10.7666 20.4226 10.2125 20.2762 9.69681 20.0404C9.42143 19.9144 9.16858 19.7191 8.9309 19.5213C8.73214 19.356 8.74121 19.1559 8.94279 18.9666C9.2479 18.6802 9.61004 18.6136 9.99385 18.7926C10.6585 19.1025 11.3402 19.273 12.0663 19.0653C12.5798 18.9182 12.6915 18.7355 12.6609 18.1959C12.5638 16.4824 12.3853 14.7683 12.5989 13.0517C12.8521 11.0171 13.8875 9.4712 15.4637 8.35638C17.5785 6.8605 19.9263 6.64577 22.3482 7.29785C24.6105 7.90699 26.2149 9.39982 27.0722 11.6677C27.3757 12.471 27.4612 13.4017 27.482 14.2786C27.5137 15.6055 27.4041 16.9362 27.3496 18.2652C27.3305 18.7336 27.4555 18.9184 27.9005 19.0568C28.6067 19.2762 29.2613 19.0793 29.8933 18.7683C30.3012 18.5677 30.659 18.6579 30.9983 18.911C31.282 19.1226 31.315 19.3643 31.0284 19.5626C30.6245 19.8422 30.1788 20.0602 29.738 20.2748C29.3394 20.4689 28.8985 20.5772 28.5198 20.8036C27.5691 21.3725 27.3316 22.2136 27.773 23.2689C27.837 23.4218 27.9095 23.5709 27.9937 23.7456Z"
            fill="#FEFEFE" />
        <path
            d="M19.7752 6.25351C21.7172 6.19333 23.501 6.61926 25.0571 7.81789C26.922 9.25449 28.1024 11.1359 28.16 13.6317C28.1933 15.0759 28.1184 16.5231 28.0841 17.9687C28.0748 18.3605 28.1379 18.4795 28.5037 18.4119C28.922 18.3349 29.3304 18.1837 29.7344 18.0382C30.4014 17.7979 30.9978 17.942 31.5231 18.399C32.04 18.8484 32.048 19.5626 31.5727 20.0639C31.1162 20.5454 30.5341 20.7767 29.9393 20.9933C29.5588 21.1318 29.1787 21.2839 28.8202 21.4753C28.2955 21.7558 28.1109 22.2129 28.3518 22.7686C29.5594 25.553 31.354 27.6461 34.3517 28.2846C34.8673 28.3945 35.1294 28.9906 34.7955 29.4562C34.5559 29.7899 34.2075 30.1177 33.842 30.2551C32.9812 30.579 32.0842 30.8019 31.1942 31.0329C30.9671 31.0917 30.8635 31.1727 30.8248 31.4139C30.7719 31.7433 30.6874 32.0683 30.6016 32.3909C30.4628 32.9126 30.1987 33.1281 29.6875 33.0862C29.2852 33.0531 28.8875 32.9597 28.4871 32.898C27.0279 32.6737 25.6959 32.9315 24.4982 33.9154C23.5806 34.6693 22.6061 35.3578 21.4298 35.6055C19.5843 35.9942 17.8729 35.6761 16.3156 34.5231C15.6849 34.0561 15.0597 33.5591 14.3721 33.2043C13.3523 32.6779 12.2488 32.7651 11.1576 32.9693C10.8798 33.0212 10.6028 33.088 10.3226 33.1141C9.85976 33.1573 9.57541 32.9542 9.43742 32.4839C9.33276 32.1273 9.23825 31.7647 9.17615 31.3979C9.13718 31.1677 9.04423 31.0965 8.8311 31.0406C7.94139 30.808 7.05003 30.5717 6.18065 30.2691C5.86067 30.1576 5.55461 29.9024 5.32117 29.6362C4.82793 29.0737 5.07042 28.4145 5.77791 28.266C7.75791 27.8506 9.26735 26.6705 10.4337 24.9914C10.8782 24.3515 11.2364 23.6393 11.5847 22.9331C11.921 22.251 11.7583 21.7789 11.1098 21.4352C10.7728 21.2566 10.4009 21.1522 10.0588 20.9828C9.55257 20.7324 9.00619 20.5256 8.57149 20.1719C7.81993 19.5599 7.96714 18.5759 8.82868 18.1443C9.26136 17.9278 9.71447 17.8651 10.1838 18.0671C10.489 18.1984 10.8046 18.3201 11.1266 18.3854C11.3804 18.4369 11.6511 18.3958 11.9414 18.3958C11.909 17.6691 11.8513 17.0151 11.8566 16.3617C11.8669 15.0989 11.8164 13.8235 11.9668 12.5768C12.1759 10.843 13.1093 9.47062 14.3302 8.33102C15.8668 6.89667 17.7053 6.28277 19.7752 6.25351ZM27.978 23.7217C27.9095 23.5709 27.837 23.4218 27.773 23.2689C27.3316 22.2136 27.5691 21.3725 28.5198 20.8036C28.8985 20.5772 29.3395 20.4689 29.738 20.2748C30.1788 20.0604 30.6245 19.8422 31.0284 19.5626C31.315 19.3643 31.282 19.1226 30.9983 18.911C30.659 18.6579 30.3013 18.5677 29.8933 18.7683C29.2613 19.0793 28.6068 19.2762 27.9006 19.0568C27.4555 18.9184 27.3305 18.7336 27.3497 18.2652C27.4041 16.9363 27.5137 15.6055 27.482 14.2786C27.4612 13.4017 27.3757 12.471 27.0722 11.6677C26.2149 9.39982 24.6105 7.907 22.3482 7.29785C19.9263 6.64577 17.5785 6.8605 15.4637 8.35638C13.8875 9.47122 12.8521 11.0171 12.5989 13.0517C12.3853 14.7683 12.5638 16.4824 12.6609 18.1959C12.6915 18.7355 12.5798 18.9182 12.0663 19.0653C11.3402 19.273 10.6585 19.1025 9.99386 18.7926C9.61006 18.6136 9.24793 18.6802 8.94282 18.9666C8.74122 19.1559 8.73215 19.356 8.93091 19.5213C9.1686 19.7191 9.42144 19.9144 9.69682 20.0404C10.2125 20.2762 10.7667 20.4226 11.2736 20.6755C12.4406 21.2578 12.7361 22.2042 12.1724 23.4147C12.1348 23.4955 12.094 23.5746 12.0549 23.6547C10.9935 25.8268 9.52864 27.5747 7.34164 28.5389C6.85177 28.7548 6.3265 28.882 5.74531 29.0739C5.94602 29.238 6.09442 29.4292 6.2839 29.5015C6.94966 29.7555 7.62277 30.1303 8.3055 30.1618C9.54605 30.2191 9.96117 30.9265 10.0479 32.0598C10.0702 32.351 10.2141 32.4025 10.4745 32.3487C10.9555 32.2493 11.442 32.1594 11.9301 32.1211C12.9044 32.0449 13.8865 32.0508 14.7632 32.578C15.4741 33.0054 16.1464 33.5052 16.8271 33.9863C18.2422 34.9867 19.7784 35.272 21.4276 34.8449C22.4254 34.5865 23.2617 33.9851 24.0552 33.3347C25.2951 32.3187 26.6819 31.9292 28.2301 32.1316C28.6686 32.189 29.107 32.2487 29.5426 32.3248C29.7904 32.3678 29.9346 32.3329 29.9627 32.0212C29.9868 31.7545 30.0869 31.4964 30.1357 31.2312C30.2452 30.6368 30.5602 30.3584 31.1518 30.2673C31.8871 30.154 32.6107 29.9302 33.3247 29.7034C33.6709 29.5935 34.022 29.42 34.1708 29.1207C33.3509 28.7661 32.5126 28.4969 31.7627 28.0602C30.0711 27.0753 28.8915 25.5571 27.978 23.7217Z"
            fill="#080805" />
    </g>
    <defs>
        <clipPath id="clip0_3_39">
            <rect width="40" height="42" fill="white" />
        </clipPath>
    </defs>
</svg>