<svg width="26" height="26" viewBox="0 0 26 26" fill="none" xmlns="http://www.w3.org/2000/svg">
<path d="M13 26C20.1797 26 26 20.1797 26 13C26 5.8203 20.1797 0 13 0C5.8203 0 0 5.8203 0 13C0 20.1797 5.8203 26 13 26Z" fill="#34E0A1"/>
<path d="M21.0295 10.4638L22.5982 8.75715H19.1194C17.3778 7.56744 15.2746 6.8746 13.0001 6.8746C10.7283 6.8746 8.63084 7.569 6.8922 8.75715H3.40479L4.97338 10.4638C4.01183 11.3411 3.40908 12.6049 3.40908 14.008C3.40908 16.6559 5.55585 18.8027 8.20378 18.8027C9.46174 18.8027 10.6076 18.3175 11.463 17.5244L12.9999 19.1978L14.5367 17.526C15.3921 18.3191 16.5368 18.8027 17.7946 18.8027C20.4425 18.8027 22.5922 16.6559 22.5922 14.008C22.5936 12.6034 21.9908 11.3398 21.0293 10.4638H21.0295ZM8.20515 17.2528C6.41269 17.2528 4.96032 15.8004 4.96032 14.008C4.96032 12.2155 6.41288 10.7631 8.20515 10.7631C9.99761 10.7631 11.45 12.2157 11.45 14.008C11.45 15.8002 9.99741 17.2528 8.20515 17.2528ZM13.0014 13.9136C13.0014 11.7783 11.4486 9.9453 9.39915 9.16237C10.5075 8.69904 11.7232 8.44203 13.0001 8.44203C14.2767 8.44203 15.4939 8.69904 16.6023 9.16237C14.5544 9.94686 13.0016 11.7783 13.0016 13.9136H13.0014ZM17.7961 17.2528C16.0037 17.2528 14.5513 15.8004 14.5513 14.008C14.5513 12.2155 16.0039 10.7631 17.7961 10.7631C19.5886 10.7631 21.041 12.2157 21.041 14.008C21.041 15.8002 19.5884 17.2528 17.7961 17.2528ZM17.7961 12.3056C16.8562 12.3056 16.0951 13.0667 16.0951 14.0066C16.0951 14.9463 16.8562 15.7074 17.7961 15.7074C18.7358 15.7074 19.4969 14.9463 19.4969 14.0066C19.4969 13.0683 18.7358 12.3056 17.7961 12.3056ZM9.90615 14.008C9.90615 14.9477 9.14506 15.7088 8.20515 15.7088C7.26543 15.7088 6.50434 14.9477 6.50434 14.008C6.50434 13.0681 7.26543 12.307 8.20515 12.307C9.14486 12.3056 9.90615 13.0681 9.90615 14.008Z" fill="black"/>
</svg>
